<svg xmlns="http://www.w3.org/2000/svg" viewBox="0 0 2125.98 793.14"><defs><style>.cls-1{fill:#fff;}</style></defs><title>Asset 1</title><g id="Layer_2" data-name="Layer 2"><g id="Capa_1" data-name="Capa 1"><path class="cls-1" d="M2058.58,135.51v22.3h-12.95V90.34h34.45c14.75.37,20.41,5,20.41,20.24,0,10-.53,17.27-12,19v.35c9.18.82,11.43,5.76,11.43,15.29v12.6h-13v-12.6c0-5.66-2.34-9.62-8.54-9.7Zm17.09-11.07c9.54,0,11.87-1.9,11.87-11.78,0-9.54-1.7-11.25-11-11.25h-18v23Z"/><path class="cls-1" d="M2073.06,177A52.93,52.93,0,1,1,2126,124.08,53,53,0,0,1,2073.06,177Zm0-96.58a43.65,43.65,0,1,0,43.64,43.65A43.7,43.7,0,0,0,2073.06,80.43Z"/><path class="cls-1" d="M1204.67,343.74V350c0,23.37-.29,44.47-19.69,60.74-19.45,16-43.12,15.67-67.92,15.67-58.16,0-100.66-2.83-100.66-81V290.12c0-70.72,37.94-81,100.66-81,58.75,0,86.17,6,87.32,70.16v8.28h-58.8v-8.28c-2-19.09-15.38-20.53-34.74-20.53-32.55,0-35.66,10-35.66,40.5v33.36c0,32,1.4,44.25,35.66,44.25,23.6,0,35-1.73,35-26.83v-6.3Z"/><polygon class="cls-1" points="1279.36 375.14 1368.67 375.14 1368.67 424.74 1222.36 424.74 1222.36 210.85 1279.36 210.85 1279.36 375.14"/><path class="cls-1" d="M1379.17,348V287.58c0-65.92,41-78.45,98.92-78.45s99,12.53,99,78.45V348c0,65.9-41.11,78.44-99,78.44s-98.92-12.54-98.92-78.44m139.18-6.27V293.55c0-31.65-10.58-34.79-40.26-34.79s-39.32,3.14-40.21,34.79v48.19c.89,31.94,10.6,35.12,40.21,35.12s40.26-3.18,40.26-35.12"/><path class="cls-1" d="M1780.26,210.85V353.44c0,57-26.8,73-89.62,73-85.51,0-94.65-21.67-94.65-73V210.85h57.07V352.33c0,24.24,13.67,24.53,37.58,24.53,24.33,0,32.55-2,32.55-27.12V210.85Z"/><path class="cls-1" d="M1803.31,210.85h108.38c59.55,0,86.1,22.25,86.1,83v44.76c0,58.48-18.83,86.12-78.39,86.12H1803.31Zm57,164.3h50c21.07,0,28.77-14,28.77-36.53V293.86c0-27.67-8.78-33.43-28.77-33.43h-50Z"/><polygon class="cls-1" points="1030.92 483.8 1059.02 483.8 1059.02 668.35 1220.06 668.35 1220.06 691.29 1030.92 691.29 1030.92 483.8"/><path class="cls-1" d="M1346.09,483.8H1381l123.29,207.49h-31.86l-25.77-43.83h-166.3l-25.76,43.83h-31.8Zm17.47,22.9-69.72,117.82h139.39Z"/><path class="cls-1" d="M1518.59,483.8H1695.7c43,0,55,22.34,55,46.15v17.81c0,14.84-8.28,30-33.48,32.62v1.13c22,1.12,41.57,9.46,41.57,41v24.62c0,28.92-25.83,44.15-60.21,44.15h-180Zm204,44.72c0-18.95-20.92-21.82-29.53-21.82H1546.69v66.22h145c15.2,0,30.9-4.85,30.9-25.52Zm8,97.16c0-25.81-14.33-29.85-39.81-29.85H1546.69v72.52h148.45c26.1,0,35.52-9.46,35.52-27.78Z"/><path class="cls-1" d="M1778.74,626h26.4v14.61c0,20.32,10.89,30.1,45.83,30.1h87.16c40.68,0,52.74-8.63,52.74-38.44,0-26.06-10.39-32.67-45.32-32.67h-53.28c-85.7,0-113.77-5.16-113.77-60.16,0-47.3,28.07-57.93,85.94-57.93h60.48c69.62,0,87.11,17.81,87.11,54.77v7.17h-26.34c-.6-33-4-39-77.68-39h-29.8c-54.18,0-73.35,2.86-73.35,37,0,24.6,7.71,32.91,51.55,32.91h83.16c54.68,0,77.63,15.75,77.63,51v13.5c0,51-41.83,54.71-83.4,54.71h-77.94c-41,0-77.12-7.13-77.12-52.45Z"/><path class="cls-1" d="M942,297.19A118.77,118.77,0,0,0,820,98.94a396.54,396.54,0,0,0-546.42,21.22,233,233,0,0,0-41.71-3.75C103.8,116.41,0,220.23,0,348.25,0,467.37,89.86,565.53,205.53,578.61c66,127.42,199,214.53,352.4,214.53a395.46,395.46,0,0,0,155.82-31.79A175,175,0,0,0,745,764.16c96,0,173.82-77.89,173.82-173.79A176.11,176.11,0,0,0,917,565.16a398.11,398.11,0,0,0,25-268ZM863.58,527.78a134,134,0,1,1-227.49-15.64c-24.71-16.6-98.72-58.61-233.61-74.22A192.71,192.71,0,0,1,231.87,541C125.42,541,39.13,454.68,39.13,348.25s86.29-192.71,192.74-192.71c94.2,0,172.63,67.61,189.39,157C514.23,352.24,612,421.41,664.63,483a134.19,134.19,0,0,1,147.43-8.79c42.21-53.78,78.64-105.25,84.34-181a90.17,90.17,0,0,1-125.67-82.8c0-.46,0-.93,0-1.39-35.25-7.24-80.29-2.52-122.33,10.14A56.67,56.67,0,1,1,636,195.29c11.89-6.9,64.43-34,145.32-27.25A90.11,90.11,0,1,1,924,274.75C925.49,317.19,925.52,458.65,863.58,527.78Z"/><path class="cls-1" d="M1206.47,343.74V350c0,23.37-.3,44.47-19.69,60.74-19.43,16-43.13,15.67-67.92,15.67-58.21,0-100.71-2.83-100.71-81V290.12c0-70.72,38-81,100.71-81,58.75,0,86.15,6,87.31,70.16v8.28h-58.81v-8.28c-2-19.09-15.36-20.53-34.75-20.53-32.55,0-35.64,10-35.64,40.5v33.36c0,32,1.39,44.25,35.64,44.25,23.63,0,35-1.73,35-26.83v-6.3Z"/><polygon class="cls-1" points="1281.13 375.14 1370.44 375.14 1370.44 424.74 1224.1 424.74 1224.1 210.85 1281.13 210.85 1281.13 375.14"/><path class="cls-1" d="M1380.93,348V287.58c0-65.92,41.08-78.45,99-78.45s99,12.53,99,78.45V348c0,65.9-41.11,78.44-99,78.44s-99-12.54-99-78.44m139.22-6.27V293.55c0-31.65-10.62-34.79-40.26-34.79s-39.34,3.14-40.21,34.79v48.19c.87,31.94,10.6,35.12,40.21,35.12s40.26-3.18,40.26-35.12"/><path class="cls-1" d="M1782,210.85V353.44c0,57-26.78,73-89.6,73-85.53,0-94.66-21.67-94.66-73V210.85h57.07V352.33c0,24.24,13.66,24.53,37.59,24.53,24.32,0,32.53-2,32.53-27.12V210.85Z"/><path class="cls-1" d="M1805.06,210.85h108.38c59.55,0,86.14,22.25,86.14,83v44.76c0,58.48-18.85,86.12-78.4,86.12H1805.06Zm57,164.3h50c21.07,0,28.73-14,28.73-36.53V293.86c0-27.67-8.79-33.43-28.73-33.43h-50Z"/><polygon class="cls-1" points="1032.69 483.8 1060.76 483.8 1060.76 668.35 1221.85 668.35 1221.85 691.29 1032.69 691.29 1032.69 483.8"/><path class="cls-1" d="M1347.86,483.8h35l123.24,207.49h-31.79l-25.82-43.83H1282.2l-25.79,43.83h-31.79Zm17.47,22.9-69.68,117.82H1435Z"/><path class="cls-1" d="M1520.36,483.8h177.12c43,0,55,22.34,55,46.15v17.81c0,14.84-8.29,30-33.52,32.62v1.13c22.06,1.12,41.57,9.46,41.57,41v24.62c0,28.92-25.8,44.15-60.15,44.15H1520.36Zm204.08,44.72c0-18.95-21-21.82-29.55-21.82H1548.46v66.22h145c15.23,0,31-4.85,31-25.52Zm8,97.16c0-25.81-14.33-29.85-39.82-29.85H1548.46v72.52h148.46c26.08,0,35.52-9.46,35.52-27.78Z"/><path class="cls-1" d="M1780.54,626h26.37v14.61c0,20.32,10.92,30.1,45.83,30.1h87.15c40.67,0,52.78-8.63,52.78-38.44,0-26.06-10.4-32.67-45.34-32.67h-53.28c-85.66,0-113.76-5.16-113.76-60.16,0-47.3,28.1-57.93,85.9-57.93h60.53c69.56,0,87.09,17.81,87.09,54.77v7.17h-26.35c-.6-33-4-39-77.65-39H1880c-54.12,0-73.33,2.86-73.33,37,0,24.6,7.74,32.91,51.59,32.91h83.13c54.69,0,77.63,15.75,77.63,51v13.5c0,51-41.86,54.71-83.41,54.71h-77.92c-41,0-77.1-7.13-77.1-52.45Z"/></g></g></svg>